<svg xmlns="http://www.w3.org/2000/svg" width="105.046" height="24.541" viewBox="0 0 105.046 24.541">
  <g id="logo_infobae_naranja" transform="translate(-4.9 -1.8)">
    <path id="Path_2" data-name="Path 2" d="M7.281,17.944A2.8,2.8,0,0,1,5.4,17.2V34.435H9.162V17.2A2.8,2.8,0,0,1,7.281,17.944Z" transform="translate(-0.281 -8.663)" fill="#f68e01"/>
    <ellipse id="Ellipse_4" data-name="Ellipse 4" cx="2.1" cy="2.143" rx="2.1" ry="2.143" transform="translate(4.9 3.069)" fill="#f68e01"/>
    <g id="Group_3" data-name="Group 3" transform="translate(11.987 1.8)">
      <path id="Path_3" data-name="Path 3" d="M21.1,16.281h3.587v2.537l.087.087a6.537,6.537,0,0,1,2.231-2.275,5.755,5.755,0,0,1,3.062-.831,6.142,6.142,0,0,1,4.418,1.487A5.593,5.593,0,0,1,36.1,21.705V33.6H32.342V22.712a4.81,4.81,0,0,0-.875-2.975,3.112,3.112,0,0,0-2.493-.919,4.088,4.088,0,0,0-1.706.35A3.493,3.493,0,0,0,26,20.131a5.192,5.192,0,0,0-.831,1.444,4.832,4.832,0,0,0-.306,1.794V33.6H21.1S21.1,16.281,21.1,16.281Z" transform="translate(-21.1 -9.676)" fill="#f68e01"/>
      <path id="Path_4" data-name="Path 4" d="M58.2,8.405H61V6.962a7.635,7.635,0,0,1,.394-2.668,3.559,3.559,0,0,1,1.05-1.575,3.97,3.97,0,0,1,1.487-.744A7.663,7.663,0,0,1,65.68,1.8a11.811,11.811,0,0,1,2.625.219V4.993a2.288,2.288,0,0,0-.787-.131c-.175,0-.525-.044-.875-.044a2.437,2.437,0,0,0-1.312.35,1.7,1.7,0,0,0-.525,1.444V8.405H68v2.843H64.805V25.728H61.043V11.249h-2.8L58.2,8.405Z" transform="translate(-41.971 -1.8)" fill="#f68e01"/>
      <path id="Path_5" data-name="Path 5" d="M90.318,34.085a8.676,8.676,0,0,1-3.631-.7,7.785,7.785,0,0,1-4.418-4.768,11.155,11.155,0,0,1-.569-3.675,11.155,11.155,0,0,1,.569-3.675,7.9,7.9,0,0,1,1.706-2.887A7.545,7.545,0,0,1,86.687,16.5a9.422,9.422,0,0,1,3.631-.7,8.676,8.676,0,0,1,3.631.7,7.785,7.785,0,0,1,4.418,4.768,10.976,10.976,0,0,1,.569,3.675,10.8,10.8,0,0,1-.569,3.675,7.785,7.785,0,0,1-4.418,4.768A8.676,8.676,0,0,1,90.318,34.085Zm0-3.018a4.375,4.375,0,0,0,2.187-.525,4.7,4.7,0,0,0,1.531-1.4,5.757,5.757,0,0,0,.875-1.969,9.613,9.613,0,0,0,0-4.462,5.757,5.757,0,0,0-.875-1.968,4.7,4.7,0,0,0-1.531-1.4,4.819,4.819,0,0,0-4.374,0,4.7,4.7,0,0,0-1.531,1.4,5.756,5.756,0,0,0-.875,1.968,9.613,9.613,0,0,0,0,4.462,5.756,5.756,0,0,0,.875,1.969,4.7,4.7,0,0,0,1.531,1.4A4.375,4.375,0,0,0,90.318,31.067Z" transform="translate(-55.191 -9.676)" fill="#f68e01"/>
      <path id="Path_6" data-name="Path 6" d="M126.144,1.8h3.762v8.836h.087a4.752,4.752,0,0,1,.962-1.137,7.834,7.834,0,0,1,1.225-.875,7.677,7.677,0,0,1,1.4-.525,5.76,5.76,0,0,1,1.487-.175,7.936,7.936,0,0,1,3.5.7,6.935,6.935,0,0,1,2.493,1.968,9.259,9.259,0,0,1,1.487,2.931,12.05,12.05,0,0,1,.481,3.587,12.269,12.269,0,0,1-.437,3.368,8.792,8.792,0,0,1-1.356,2.887,6.7,6.7,0,0,1-2.275,2.012,6.5,6.5,0,0,1-3.281.744,12.232,12.232,0,0,1-1.75-.131,7.16,7.16,0,0,1-1.662-.437,6.057,6.057,0,0,1-1.444-.875,4.456,4.456,0,0,1-1.094-1.4h-.044v2.362H126.1L126.144,1.8Zm13.123,15.311a7.93,7.93,0,0,0-.306-2.275,6.735,6.735,0,0,0-.875-1.968,4.268,4.268,0,0,0-3.543-1.881,4.177,4.177,0,0,0-3.587,1.662,7.691,7.691,0,0,0-1.225,4.462,8.955,8.955,0,0,0,.306,2.45A5.309,5.309,0,0,0,131,21.485a5.109,5.109,0,0,0,1.487,1.269,4.634,4.634,0,0,0,4.2-.044,4.555,4.555,0,0,0,1.487-1.4A5.841,5.841,0,0,0,139,19.385,10.38,10.38,0,0,0,139.267,17.111Z" transform="translate(-80.168 -1.8)" fill="#f68e01"/>
      <path id="Path_7" data-name="Path 7" d="M182.711,29.586a1.97,1.97,0,0,0,.175,1.006.722.722,0,0,0,.7.306h.394a2.2,2.2,0,0,0,.525-.087v2.668a4.541,4.541,0,0,1-.525.131l-.656.131a3.377,3.377,0,0,1-.656.087,2.691,2.691,0,0,1-.569.044,3.689,3.689,0,0,1-1.925-.481,2.381,2.381,0,0,1-1.006-1.662,6.683,6.683,0,0,1-2.756,1.619,10.222,10.222,0,0,1-3.15.481,7.634,7.634,0,0,1-2.231-.306,6.839,6.839,0,0,1-1.881-.919,4.129,4.129,0,0,1-1.269-1.575A5.221,5.221,0,0,1,167.4,28.8a5.188,5.188,0,0,1,.569-2.625A4.4,4.4,0,0,1,169.5,24.6a6.394,6.394,0,0,1,2.1-.831,22.168,22.168,0,0,1,2.362-.394c.7-.131,1.312-.219,1.969-.306a5.606,5.606,0,0,0,1.619-.306,2.832,2.832,0,0,0,1.137-.612,1.763,1.763,0,0,0,.394-1.269,2.239,2.239,0,0,0-.35-1.225,1.955,1.955,0,0,0-.875-.7,4.331,4.331,0,0,0-1.137-.35c-.437-.044-.831-.087-1.181-.087a4.867,4.867,0,0,0-2.625.656,2.552,2.552,0,0,0-1.137,2.1h-3.762a6.407,6.407,0,0,1,.787-2.8,6.221,6.221,0,0,1,1.75-1.794,7.127,7.127,0,0,1,2.45-.919,14.7,14.7,0,0,1,2.756-.262,12.074,12.074,0,0,1,2.493.262,6.946,6.946,0,0,1,2.187.875,4.524,4.524,0,0,1,1.575,1.575,4.356,4.356,0,0,1,.612,2.318v9.055Zm-3.762-4.812a4.431,4.431,0,0,1-2.1.7,24.408,24.408,0,0,0-2.493.35,8.633,8.633,0,0,0-1.137.306,3.657,3.657,0,0,0-1.006.525,1.751,1.751,0,0,0-.656.831,2.856,2.856,0,0,0-.262,1.269,1.814,1.814,0,0,0,.35,1.094,2.692,2.692,0,0,0,.875.7,3.148,3.148,0,0,0,1.137.35,5.931,5.931,0,0,0,2.45-.087,4.682,4.682,0,0,0,1.356-.569,4,4,0,0,0,1.094-1.006,2.442,2.442,0,0,0,.437-1.531V24.774Z" transform="translate(-103.402 -9.507)" fill="#f68e01"/>
      <path id="Path_8" data-name="Path 8" d="M211.262,26.117a7.049,7.049,0,0,0,.262,1.925,5.389,5.389,0,0,0,.831,1.662,4.451,4.451,0,0,0,1.4,1.137,4.914,4.914,0,0,0,2.056.437,4.572,4.572,0,0,0,2.668-.7,4.131,4.131,0,0,0,1.487-2.143h3.587a8.1,8.1,0,0,1-1.006,2.537,7.175,7.175,0,0,1-1.75,1.881,8.525,8.525,0,0,1-2.275,1.137,8.952,8.952,0,0,1-2.668.394,9.2,9.2,0,0,1-3.587-.656,7.207,7.207,0,0,1-2.625-1.881,7.748,7.748,0,0,1-1.619-2.887,12.435,12.435,0,0,1-.525-3.675,10.3,10.3,0,0,1,.569-3.5,8.8,8.8,0,0,1,1.662-2.931,8.387,8.387,0,0,1,2.581-2.012,7.875,7.875,0,0,1,3.456-.744,7.679,7.679,0,0,1,3.631.875,7.88,7.88,0,0,1,2.668,2.275,8.867,8.867,0,0,1,1.531,3.237,10.87,10.87,0,0,1,.262,3.762h-12.6Zm8.793-2.537a5.98,5.98,0,0,0-.394-1.75,3.994,3.994,0,0,0-.875-1.444,4.364,4.364,0,0,0-1.312-1.006,3.814,3.814,0,0,0-1.75-.394,4.681,4.681,0,0,0-1.794.35,4.442,4.442,0,0,0-1.4.962,4.516,4.516,0,0,0-.919,1.444,6.267,6.267,0,0,0-.394,1.794l8.836.044Z" transform="translate(-125.96 -9.845)" fill="#f68e01"/>
    </g>
  </g>
</svg>
